<svg xmlns="http://www.w3.org/2000/svg" width="188" height="188" viewBox="0 0 188 188" fill="none"><path d="M93.9624 2.40332C144.761 2.40332 185.911 43.4937 185.911 94.1206C185.911 144.791 144.717 185.838 93.9624 185.838C43.1637 185.838 2.01367 144.747 2.01367 94.1206C2.01367 43.4498 43.2078 2.40332 93.9624 2.40332Z" fill="url(#paint0_radial)"></path><path d="M93.9627 185.838C43.0759 185.838 1.83781 144.616 1.92592 93.8574V89.9461C1.96998 63.7098 23.294 42.4834 49.5965 42.4834H138.329C164.632 42.4834 185.956 63.7537 186 89.99V93.9013C186.044 144.704 144.85 185.838 93.9627 185.838Z" fill="url(#paint1_radial)"></path><path d="M2.01398 96.4058C1.88181 44.5484 44.0011 2.40332 95.9893 2.40332H99.3378C126.213 2.40332 122.688 24.1131 122.688 50.9207V62.8303C122.688 89.638 100.924 111.348 74.0486 111.348H50.6097C23.7785 111.304 2.01398 123.169 2.01398 96.4058Z" fill="url(#paint2_radial)"></path><path d="M50.8737 111.304C74.6709 111.304 93.9622 92.0611 93.9622 68.3238C93.9622 44.5866 74.6709 25.3438 50.8737 25.3438C27.0766 25.3438 7.78516 44.5866 7.78516 68.3238C7.78516 92.0611 27.0766 111.304 50.8737 111.304Z" fill="url(#paint3_radial)" fill-opacity="0.56"></path><path d="M123.921 82.6501C143.631 82.6501 159.608 66.7128 159.608 47.0531C159.608 27.3934 143.631 11.4561 123.921 11.4561C104.212 11.4561 88.2344 27.3934 88.2344 47.0531C88.2344 66.7128 104.212 82.6501 123.921 82.6501Z" fill="url(#paint4_radial)" fill-opacity="0.56"></path><path d="M93.9635 99.2625C93.9635 126.158 61.8013 148 22.1052 148C19.2414 148 1.9707 126.202 1.9707 99.2625C1.9707 72.367 7.69823 50.5254 22.1052 50.5254C61.8013 50.5254 93.9635 72.3231 93.9635 99.2625Z" fill="url(#paint5_radial)" fill-opacity="0.96"></path><path d="M151.459 160.963C151.459 169.05 128.857 185.837 89.954 185.837C63.5633 185.837 30.7402 165.666 30.7402 157.58C30.7402 98.2072 63.5193 94.0762 89.954 94.0762C116.389 94.1201 151.459 115.083 151.459 160.963Z" fill="url(#paint6_radial)" fill-opacity="0.46"></path><path d="M2.01367 94.1206C2.01367 43.4498 43.2078 2.40332 93.9624 2.40332C144.761 2.40332 185.911 43.4937 185.911 94.1206V105.591H2.01367V94.1206Z" fill="url(#paint7_linear)" fill-opacity="0.8"></path><path d="M105.242 97.1969C105.242 120.796 86.0332 139.957 62.3742 139.957C38.7151 139.957 19.5059 120.796 19.5059 97.1969C19.5059 73.5974 38.7151 54.4365 62.3742 54.4365C86.0332 54.4365 105.242 73.5974 105.242 97.1969Z" fill="url(#paint8_radial)" fill-opacity="0.8"></path><path d="M105.462 125.63C105.462 146.197 88.7203 162.897 68.1013 162.897C47.4822 162.897 30.7402 146.197 30.7402 125.63C30.7402 105.063 47.4822 88.3633 68.1013 88.3633C88.7644 88.3633 105.462 105.063 105.462 125.63Z" fill="url(#paint9_radial)" fill-opacity="0.5"></path><path d="M93.5233 65.4672C123.671 65.4672 148.111 51.34 148.111 33.9133C148.111 16.4865 123.671 2.35938 93.5233 2.35938C63.3753 2.35938 38.9355 16.4865 38.9355 33.9133C38.9355 51.34 63.3753 65.4672 93.5233 65.4672Z" fill="url(#paint10_radial)" fill-opacity="0.75"></path><path d="M93.9624 2.40332C144.761 2.40332 185.911 43.4937 185.911 94.1206C185.911 144.791 144.717 185.838 93.9624 185.838C43.1637 185.838 2.01367 144.747 2.01367 94.1206C2.01367 43.4498 43.2078 2.40332 93.9624 2.40332Z" stroke="url(#paint11_linear)" stroke-width="3"></path><path d="M155.158 84.1439C154.673 64.7193 138.504 49.0742 118.59 49.0742C108.809 49.0742 99.9535 52.8537 93.3889 59.0062C86.8683 52.8537 78.0568 49.0742 68.32 49.0742C48.4058 49.0742 32.2366 64.8512 31.752 84.5394V84.6712V84.8031C31.752 99.789 37.3032 113.105 42.3699 122.246C44.9252 126.904 47.5246 130.684 49.4632 133.321C50.4325 134.639 51.2696 135.694 51.8864 136.441C52.1948 136.836 52.4592 137.1 52.6354 137.32C52.7235 137.408 52.8116 137.495 52.8557 137.583C52.8997 137.627 52.8997 137.627 52.9438 137.671L52.9878 137.715L53.0319 137.759C57.2614 142.593 64.6631 143.077 69.5536 138.858C74.3999 134.639 74.8846 127.3 70.6991 122.466C70.6991 122.466 70.6991 122.466 70.6991 122.422C70.6991 122.378 70.655 122.378 70.611 122.334C70.5228 122.246 70.3907 122.07 70.1704 121.806C69.7739 121.323 69.157 120.576 68.4521 119.521C66.9541 117.5 64.9716 114.555 62.989 110.908C58.8916 103.568 55.3229 94.2956 55.2789 84.847C55.5432 77.8155 61.3588 72.1903 68.4521 72.1903C75.6335 72.1903 81.4492 77.8595 81.6254 84.9789C81.6695 86.7807 82.1541 88.4946 82.9031 89.9888C84.5773 94.3396 88.8509 97.4598 93.8295 97.4598C100.262 97.4598 105.505 92.318 105.505 85.9457V84.4076C105.769 77.4639 111.585 71.9266 118.678 71.9266C125.771 71.9266 131.587 77.5079 131.851 84.4076C131.807 91.9664 129.34 99.4374 126.564 105.326C125.199 108.227 123.833 110.556 122.864 112.182C122.379 112.973 121.938 113.588 121.718 113.984C121.586 114.16 121.498 114.291 121.454 114.379C121.41 114.423 121.41 114.423 121.41 114.423C121.366 114.467 121.322 114.599 121.322 114.599C123.48 111.962 126.741 110.292 130.486 110.292C136.918 110.292 142.161 115.434 142.161 121.762C142.161 124.048 141.456 126.157 140.266 128.003C140.31 128.047 140.311 128.047 140.311 128.047V128.003L140.355 127.959C140.399 127.915 140.399 127.915 140.399 127.871C140.443 127.827 140.531 127.739 140.575 127.607C140.707 127.432 140.883 127.168 141.104 126.86C141.544 126.245 142.117 125.366 142.822 124.224C144.188 122.026 146.038 118.862 147.844 114.995C151.413 107.436 155.29 96.493 155.29 84.2757V84.1439H155.158Z" fill="white"></path><path d="M130.719 110C127.019 110 123.714 111.714 121.555 114.307C119.969 116.24 119 118.745 119 121.426C119 127.755 124.243 132.896 130.675 132.896C134.464 132.896 137.813 131.095 139.972 128.37C140.148 128.106 140.324 127.886 140.5 127.623C141.69 125.821 142.395 123.711 142.395 121.382C142.395 115.142 137.196 110 130.719 110Z" fill="#B7E803"></path><defs><radialGradient id="paint0_radial" cx="0" cy="0" r="1" gradientUnits="userSpaceOnUse" gradientTransform="translate(157.207 25.3215) rotate(90) scale(131.862 132.195)"><stop offset="0.1531" stop-color="#02FB06"></stop><stop offset="0.3626" stop-color="#07F018"></stop><stop offset="0.869" stop-color="#1BC35C"></stop><stop offset="1" stop-color="#22B573"></stop></radialGradient><radialGradient id="paint1_radial" cx="0" cy="0" r="1" gradientUnits="userSpaceOnUse" gradientTransform="translate(18.4991 172.347) rotate(-40.7389) scale(128.802 140.788)"><stop offset="0.2448" stop-color="#662D91"></stop><stop offset="1" stop-color="#2E3192" stop-opacity="0"></stop></radialGradient><radialGradient id="paint2_radial" cx="0" cy="0" r="1" gradientUnits="userSpaceOnUse" gradientTransform="translate(61.4758 26.291) scale(55.0516 203.092)"><stop stop-color="#FCBE32"></stop><stop offset="1" stop-color="#23B674" stop-opacity="0"></stop></radialGradient><radialGradient id="paint3_radial" cx="0" cy="0" r="1" gradientUnits="userSpaceOnUse" gradientTransform="translate(50.8602 66.8691) rotate(90) scale(41.536 41.6408)"><stop offset="0.3646" stop-color="#F91616"></stop><stop offset="1" stop-color="#2E3192" stop-opacity="0"></stop></radialGradient><radialGradient id="paint4_radial" cx="0" cy="0" r="1" gradientUnits="userSpaceOnUse" gradientTransform="translate(123.899 45.8663) rotate(90) scale(34.3713 34.458)"><stop offset="0.1354" stop-color="#F4F916"></stop><stop offset="0.9375" stop-color="#ADFF00" stop-opacity="0"></stop></radialGradient><radialGradient id="paint5_radial" cx="0" cy="0" r="1" gradientUnits="userSpaceOnUse" gradientTransform="translate(22.1397 97.6087) rotate(90) scale(47.0742 69.4013)"><stop stop-color="#9D55DB"></stop><stop offset="1" stop-color="#C111FF" stop-opacity="0"></stop></radialGradient><radialGradient id="paint6_radial" cx="0" cy="0" r="1" gradientUnits="userSpaceOnUse" gradientTransform="translate(90.0051 180.453) rotate(90) scale(64.7507 54.6563)"><stop stop-color="#3CA1EA"></stop><stop offset="0.776" stop-color="#11FFB8" stop-opacity="0"></stop></radialGradient><linearGradient id="paint7_linear" x1="93.9839" y1="39.2441" x2="93.9839" y2="109.271" gradientUnits="userSpaceOnUse"><stop stop-color="#FBF102"></stop><stop offset="1" stop-color="#BDE022" stop-opacity="0"></stop></linearGradient><radialGradient id="paint8_radial" cx="0" cy="0" r="1" gradientUnits="userSpaceOnUse" gradientTransform="translate(58.9447 81.8188) rotate(135.072) scale(38.7586 38.7584)"><stop stop-color="#DA25E9"></stop><stop offset="0.8021" stop-color="#DA25E9" stop-opacity="0"></stop></radialGradient><radialGradient id="paint9_radial" cx="0" cy="0" r="1" gradientUnits="userSpaceOnUse" gradientTransform="translate(65.1333 112.235) rotate(135.072) scale(33.7714 33.7713)"><stop offset="0.1042" stop-color="#DA25E9"></stop><stop offset="1" stop-color="#DA25E9" stop-opacity="0"></stop></radialGradient><radialGradient id="paint10_radial" cx="0" cy="0" r="1" gradientUnits="userSpaceOnUse" gradientTransform="translate(82.022 13.8298) rotate(84.7925) scale(31.663 54.8263)"><stop offset="0.0459339" stop-color="#FBFF33"></stop><stop offset="1" stop-color="#F1C116" stop-opacity="0"></stop></radialGradient><linearGradient id="paint11_linear" x1="40.1895" y1="13.5" x2="131.189" y2="173" gradientUnits="userSpaceOnUse"><stop stop-color="white"></stop><stop offset="1" stop-color="white" stop-opacity="0"></stop></linearGradient></defs></svg>